<?xml version="1.0" encoding="UTF-8"?>
<!DOCTYPE svg PUBLIC "-//W3C//DTD SVG 1.1//EN" "http://www.w3.org/Graphics/SVG/1.1/DTD/svg11.dtd">
<svg xmlns="http://www.w3.org/2000/svg" version="1.1" viewBox="0 0 73 73" stroke="none">
	<rect width="100%" height="100%" fill="#ffffff"/>
	<path d="M20,20h7v1h-7z M28,20h1v1h-1z M30,20h1v3h-1z M35,20h2v1h-2z M40,20h2v1h-2z M43,20h2v1h-2z M46,20h7v1h-7z M20,21h1v6h-1z M26,21h1v6h-1z M29,21h1v1h-1z M32,21h1v1h-1z M36,21h1v1h-1z M39,21h2v1h-2z M44,21h1v3h-1z M46,21h1v6h-1z M52,21h1v6h-1z M22,22h3v3h-3z M33,22h1v1h-1z M35,22h1v2h-1z M37,22h2v2h-2z M39,22h1v1h-1z M41,22h1v4h-1z M48,22h3v3h-3z M28,23h1v6h-1z M29,23h1v1h-1z M31,23h1v3h-1z M34,23h1v4h-1z M43,23h1v2h-1z M30,24h1v5h-1z M33,24h1v1h-1z M42,24h1v4h-1z M29,25h1v1h-1z M32,25h1v7h-1z M36,25h1v3h-1z M37,25h1v1h-1z M39,25h2v1h-2z M44,25h1v3h-1z M21,26h5v1h-5z M38,26h1v1h-1z M40,26h1v2h-1z M47,26h5v1h-5z M29,27h1v1h-1z M31,27h1v2h-1z M35,27h1v1h-1z M37,27h1v3h-1z M41,27h1v3h-1z M43,27h1v1h-1z M20,28h1v1h-1z M24,28h1v3h-1z M26,28h2v1h-2z M34,28h1v2h-1z M38,28h1v1h-1z M45,28h5v1h-5z M52,28h1v1h-1z M33,29h1v1h-1z M35,29h2v2h-2z M40,29h1v2h-1z M42,29h3v1h-3z M49,29h3v1h-3z M22,30h1v3h-1z M25,30h2v1h-2z M30,30h1v3h-1z M38,30h1v2h-1z M43,30h4v1h-4z M49,30h1v1h-1z M51,30h1v1h-1z M21,31h1v1h-1z M34,31h1v2h-1z M37,31h1v1h-1z M41,31h1v2h-1z M43,31h1v1h-1z M45,31h1v1h-1z M24,32h3v1h-3z M33,32h1v1h-1z M35,32h1v1h-1z M39,32h2v1h-2z M42,32h1v4h-1z M44,32h1v1h-1z M46,32h1v1h-1z M48,32h2v1h-2z M52,32h1v1h-1z M20,33h1v2h-1z M23,33h1v1h-1z M25,33h1v5h-1z M27,33h2v1h-2z M36,33h1v2h-1z M38,33h1v2h-1z M43,33h1v2h-1z M45,33h1v1h-1z M47,33h1v1h-1z M49,33h1v1h-1z M21,34h2v1h-2z M24,34h1v2h-1z M26,34h1v1h-1z M30,34h1v1h-1z M34,34h1v1h-1z M37,34h1v3h-1z M41,34h1v3h-1z M48,34h1v3h-1z M51,34h1v1h-1z M22,35h1v2h-1z M29,35h1v1h-1z M31,35h2v2h-2z M44,35h2v1h-2z M47,35h1v1h-1z M20,36h1v1h-1z M23,36h1v1h-1z M26,36h1v1h-1z M30,36h1v2h-1z M33,36h3v2h-3z M38,36h1v3h-1z M39,36h1v1h-1z M43,36h1v3h-1z M45,36h2v1h-2z M51,36h1v1h-1z M21,37h1v3h-1z M24,37h1v2h-1z M28,37h1v1h-1z M36,37h1v2h-1z M40,37h1v3h-1z M44,37h1v1h-1z M49,37h2v1h-2z M20,38h1v1h-1z M22,38h2v1h-2z M26,38h1v1h-1z M29,38h1v2h-1z M34,38h2v1h-2z M42,38h1v1h-1z M45,38h1v3h-1z M49,38h1v1h-1z M51,38h1v1h-1z M22,39h1v1h-1z M30,39h1v9h-1z M31,39h1v1h-1z M33,39h1v2h-1z M37,39h1v3h-1z M41,39h1v1h-1z M44,39h1v2h-1z M23,40h1v1h-1z M25,40h4v1h-4z M35,40h1v1h-1z M39,40h1v1h-1z M42,40h2v2h-2z M46,40h1v1h-1z M48,40h2v1h-2z M51,40h1v3h-1z M20,41h2v1h-2z M25,41h1v2h-1z M28,41h1v1h-1z M32,41h1v1h-1z M38,41h1v3h-1z M41,41h1v1h-1z M47,41h1v1h-1z M49,41h1v4h-1z M22,42h3v1h-3z M26,42h2v1h-2z M29,42h1v1h-1z M34,42h2v1h-2z M43,42h3v1h-3z M24,43h1v1h-1z M31,43h2v1h-2z M35,43h1v5h-1z M37,43h1v2h-1z M41,43h3v1h-3z M45,43h2v2h-2z M48,43h1v8h-1z M52,43h1v1h-1z M20,44h4v1h-4z M25,44h3v1h-3z M29,44h1v3h-1z M32,44h1v1h-1z M39,44h1v1h-1z M41,44h1v2h-1z M44,44h1v5h-1z M47,44h1v1h-1z M51,44h1v3h-1z M28,45h1v2h-1z M34,45h1v1h-1z M36,45h1v1h-1z M40,45h1v1h-1z M42,45h1v1h-1z M50,45h1v1h-1z M20,46h7v1h-7z M32,46h1v3h-1z M37,46h1v3h-1z M46,46h1v1h-1z M49,46h1v4h-1z M20,47h1v6h-1z M26,47h1v6h-1z M33,47h1v1h-1z M38,47h2v1h-2z M41,47h1v1h-1z M43,47h1v1h-1z M52,47h1v1h-1z M22,48h3v3h-3z M28,48h2v1h-2z M31,48h1v1h-1z M42,48h1v1h-1z M45,48h2v4h-2z M47,48h1v1h-1z M30,49h1v4h-1z M34,49h3v1h-3z M35,50h2v1h-2z M40,50h1v1h-1z M42,50h2v2h-2z M47,50h1v2h-1z M50,50h1v1h-1z M29,51h1v2h-1z M31,51h1v2h-1z M34,51h1v2h-1z M36,51h2v2h-2z M41,51h1v2h-1z M21,52h5v1h-5z M28,52h1v1h-1z M32,52h1v1h-1z M39,52h1v1h-1z M43,52h2v1h-2z M46,52h1v1h-1z M48,52h1v1h-1z M52,52h1v1h-1z" fill="#000000"/>
</svg>
