# Blender v2.93.5 OBJ File: ''
# www.blender.org
mtllib untitled.mtl
o Cube.001
v 1.356928 -1.000000 0.671497
v 1.295475 -1.000000 0.834076
v -1.295475 -1.000000 0.834076
v -1.356928 -1.000000 0.671497
v 1.356927 1.000000 0.671498
v -1.356928 1.000000 0.671497
v -1.295476 1.000000 0.834076
v 1.295475 1.000000 0.834077
v -1.125167 -1.000000 -0.999258
v -1.125168 1.000000 -0.999257
v -1.125168 1.000000 -1.165924
v -1.125167 -1.000000 -1.165924
v 1.125168 1.000000 -1.165924
v 1.125168 -1.000000 -1.165924
v -1.356928 -1.000000 0.500742
v -1.356928 1.000000 0.500742
v -1.385527 1.000000 0.167409
v -1.385526 -1.000000 0.167409
v -1.385527 1.000000 -0.499258
v -1.385526 -1.000000 -0.499258
v 1.295475 -1.000000 -0.832591
v 1.295476 1.000000 -0.832590
v 1.385527 1.000000 -0.499257
v 1.385527 -1.000000 -0.499257
v 1.385526 1.000000 0.167410
v 1.385527 -1.000000 0.167409
v -1.295475 1.000000 -0.832591
v -1.295475 -1.000000 -0.832591
v 1.356927 1.000000 0.500743
v 1.356928 -1.000000 0.500743
v 1.125168 -1.000000 -0.999257
v 1.125168 1.000000 -0.999257
vt 0.314239 0.347435
vt 0.314239 0.352905
vt 0.248601 0.352905
vt 0.248601 0.347435
vt 0.285243 0.237633
vt 0.285243 0.348262
vt 0.276024 0.348262
vt 0.276024 0.237633
vt 0.296443 0.237481
vt 0.296443 0.344292
vt 0.287542 0.344292
vt 0.287542 0.237481
vt 0.517739 0.303955
vt 0.517739 0.738183
vt 0.107559 0.738183
vt 0.107559 0.303955
vt 0.262250 0.232166
vt 0.262250 0.349607
vt 0.252463 0.349607
vt 0.252463 0.232166
vt 0.362463 0.257854
vt 0.362463 0.328041
vt 0.292277 0.328041
vt 0.292277 0.257854
vt 0.350331 0.232166
vt 0.350331 0.349607
vt 0.330757 0.349607
vt 0.330757 0.232166
vt 0.291610 0.349607
vt 0.291610 0.232166
vt 0.376551 0.237481
vt 0.376551 0.344292
vt 0.358749 0.344292
vt 0.358750 0.237481
vt 0.323146 0.344292
vt 0.323146 0.237481
vt 0.368215 0.237633
vt 0.368215 0.348262
vt 0.349777 0.348262
vt 0.349777 0.237633
vt 0.312900 0.348262
vt 0.312900 0.237633
vt 0.314239 0.298207
vt 0.314239 0.309147
vt 0.248601 0.309147
vt 0.248601 0.298207
vt 0.314239 0.331026
vt 0.248601 0.331026
vt 0.360118 0.232166
vt 0.360118 0.349607
vt 0.305344 0.344292
vt 0.305344 0.237481
vt 0.294462 0.348262
vt 0.294462 0.237633
vt 0.314239 0.341965
vt 0.248601 0.341965
vt 0.314239 0.292737
vt 0.248601 0.292737
vt 0.377434 0.237633
vt 0.377434 0.348262
vt 0.385452 0.237481
vt 0.385452 0.344292
vt 0.272037 0.349607
vt 0.272037 0.232166
vt 0.369905 0.232166
vt 0.369905 0.349607
vt 0.394353 0.237481
vt 0.394353 0.344292
vt 0.386653 0.237633
vt 0.386653 0.348262
vt 0.314239 0.287268
vt 0.248601 0.287268
vn 0.0000 -1.0000 -0.0000
vn 0.0000 1.0000 0.0000
vn 0.9354 -0.0000 0.3536
vn -0.0000 -0.0000 1.0000
vn -1.0000 -0.0000 -0.0000
vn 0.0000 0.0000 -1.0000
vn -0.9963 -0.0000 0.0855
vn 0.9654 -0.0000 -0.2608
vn 1.0000 0.0000 0.0000
vn 0.9963 0.0000 0.0855
vn 0.6994 0.0000 -0.7147
vn -0.9654 -0.0000 -0.2608
vn -0.9354 -0.0000 0.3536
vn -0.6994 0.0000 -0.7147
usemtl Material.001
s off
f 1/1/1 2/2/1 3/3/1 4/4/1
f 5/5/2 6/6/2 7/7/2 8/8/2
f 1/9/3 5/10/3 8/11/3 2/12/3
f 2/13/4 8/14/4 7/15/4 3/16/4
f 9/17/5 10/18/5 11/19/5 12/20/5
f 13/21/6 14/22/6 12/23/6 11/24/6
f 15/25/7 16/26/7 17/27/7 18/28/7
f 18/28/5 17/27/5 19/29/5 20/30/5
f 21/31/8 22/32/8 23/33/8 24/34/8
f 24/34/9 23/33/9 25/35/9 26/36/9
f 22/37/2 27/38/2 19/39/2 23/40/2
f 23/40/2 19/39/2 17/41/2 25/42/2
f 21/43/1 24/44/1 20/45/1 28/46/1
f 24/44/1 26/47/1 18/48/1 20/45/1
f 4/49/5 6/50/5 16/26/5 15/25/5
f 26/36/10 25/35/10 29/51/10 30/52/10
f 25/42/2 17/41/2 16/53/2 29/54/2
f 26/47/1 30/55/1 15/56/1 18/48/1
f 31/57/1 21/43/1 28/46/1 9/58/1
f 32/59/2 10/60/2 27/38/2 22/37/2
f 31/61/11 32/62/11 22/32/11 21/31/11
f 20/30/12 19/29/12 27/63/12 28/64/12
f 3/65/13 7/66/13 6/50/13 4/49/13
f 30/52/9 29/51/9 5/10/9 1/9/9
f 29/54/2 16/53/2 6/6/2 5/5/2
f 30/55/1 1/1/1 4/4/1 15/56/1
f 14/67/9 13/68/9 32/62/9 31/61/9
f 13/69/2 11/70/2 10/60/2 32/59/2
f 14/71/1 31/57/1 9/58/1 12/72/1
f 28/64/14 27/63/14 10/18/14 9/17/14
